<svg xmlns="http://www.w3.org/2000/svg" width="25" height="24" viewBox="0 0 25 24">
    <g fill="none" fill-rule="evenodd" transform="translate(.592)">
        <circle cx="11.545" cy="12.145" r="9.495" fill="#FFF"/>
        <path fill="#0C9" fill-rule="nonzero" d="M12 0C5.345 0 0 5.345 0 12s5.345 12 12 12 12-5.345 12-12S18.655 0 12 0zm6.927 8.236L10.2 17.291a.495.495 0 0 1-.382.164c-.163 0-.327-.055-.382-.164l-4.254-4.582-.11-.109a.59.59 0 0 1-.163-.382.59.59 0 0 1 .164-.382l.763-.763a.527.527 0 0 1 .764 0l.055.054 3 3.218c.109.11.272.11.381 0l7.31-7.581h.054a.527.527 0 0 1 .764 0l.763.763c.218.164.218.491 0 .71z"/>
    </g>
</svg>
